<?xml version="1.0" encoding="iso-8859-1"?>
<!-- Generator: Adobe Illustrator 19.0.0, SVG Export Plug-In . SVG Version: 6.00 Build 0)  -->
<svg version="1.1" id="Layer_1" xmlns="http://www.w3.org/2000/svg" xmlns:xlink="http://www.w3.org/1999/xlink" x="0px" y="0px"
	 viewBox="0 0 512 512" style="enable-background:new 0 0 512 512;" xml:space="preserve">
<g>
	<g>
		<path d="M0,0v512h512V0H0z M356.416,228.416c-4.16,4.16-9.621,6.251-15.083,6.251c-5.461,0-10.923-2.091-15.083-6.251
			l-48.917-48.917V384c0,11.776-9.536,21.333-21.333,21.333s-21.333-9.557-21.333-21.333V179.499l-48.917,48.917
			c-8.341,8.341-21.824,8.341-30.165,0s-8.341-21.824,0-30.165l85.312-85.312c1.963-1.984,4.331-3.541,6.955-4.629
			c5.205-2.155,11.093-2.155,16.299,0c2.624,1.088,4.992,2.645,6.955,4.629l85.312,85.312
			C364.757,206.592,364.757,220.075,356.416,228.416z"/>
	</g>
</g>
<g>
</g>
<g>
</g>
<g>
</g>
<g>
</g>
<g>
</g>
<g>
</g>
<g>
</g>
<g>
</g>
<g>
</g>
<g>
</g>
<g>
</g>
<g>
</g>
<g>
</g>
<g>
</g>
<g>
</g>
</svg>
